<?xml version="1.0" standalone="no"?><!DOCTYPE svg PUBLIC "-//W3C//DTD SVG 1.1//EN" "http://www.w3.org/Graphics/SVG/1.1/DTD/svg11.dtd"><svg xmlns:xlink="http://www.w3.org/1999/xlink" version="1.1" class="highcharts-root" style="font-family:&quot;Lucida Grande&quot;, &quot;Lucida Sans Unicode&quot;, Arial, Helvetica, sans-serif;font-size:12px;" xmlns="http://www.w3.org/2000/svg" width="600" height="400" viewBox="0 0 600 400"><desc>Created with Highcharts 7.1.1</desc><defs><clipPath id="highcharts-we302iu-16-"><rect x="0" y="0" width="527" height="283" fill="none"></rect></clipPath></defs><rect fill="#ffffff" class="highcharts-background" x="0" y="0" width="600" height="400" rx="0" ry="0"></rect><rect fill="none" class="highcharts-plot-background" x="63" y="45" width="527" height="283"></rect><g class="highcharts-grid highcharts-xaxis-grid" data-z-index="1"><path fill="none" data-z-index="1" class="highcharts-grid-line" d="M 121.5 45 L 121.5 328" opacity="1"></path><path fill="none" data-z-index="1" class="highcharts-grid-line" d="M 179.5 45 L 179.5 328" opacity="1"></path><path fill="none" data-z-index="1" class="highcharts-grid-line" d="M 238.5 45 L 238.5 328" opacity="1"></path><path fill="none" data-z-index="1" class="highcharts-grid-line" d="M 296.5 45 L 296.5 328" opacity="1"></path><path fill="none" data-z-index="1" class="highcharts-grid-line" d="M 355.5 45 L 355.5 328" opacity="1"></path><path fill="none" data-z-index="1" class="highcharts-grid-line" d="M 413.5 45 L 413.5 328" opacity="1"></path><path fill="none" data-z-index="1" class="highcharts-grid-line" d="M 472.5 45 L 472.5 328" opacity="1"></path><path fill="none" data-z-index="1" class="highcharts-grid-line" d="M 530.5 45 L 530.5 328" opacity="1"></path><path fill="none" data-z-index="1" class="highcharts-grid-line" d="M 589.5 45 L 589.5 328" opacity="1"></path><path fill="none" data-z-index="1" class="highcharts-grid-line" d="M 62.5 45 L 62.5 328" opacity="1"></path></g><g class="highcharts-grid highcharts-yaxis-grid" data-z-index="1"><path fill="none" stroke="#e6e6e6" stroke-width="1" data-z-index="1" class="highcharts-grid-line" d="M 63 328.5 L 590 328.5" opacity="1"></path><path fill="none" stroke="#e6e6e6" stroke-width="1" data-z-index="1" class="highcharts-grid-line" d="M 63 281.5 L 590 281.5" opacity="1"></path><path fill="none" stroke="#e6e6e6" stroke-width="1" data-z-index="1" class="highcharts-grid-line" d="M 63 234.5 L 590 234.5" opacity="1"></path><path fill="none" stroke="#e6e6e6" stroke-width="1" data-z-index="1" class="highcharts-grid-line" d="M 63 187.5 L 590 187.5" opacity="1"></path><path fill="none" stroke="#e6e6e6" stroke-width="1" data-z-index="1" class="highcharts-grid-line" d="M 63 139.5 L 590 139.5" opacity="1"></path><path fill="none" stroke="#e6e6e6" stroke-width="1" data-z-index="1" class="highcharts-grid-line" d="M 63 92.5 L 590 92.5" opacity="1"></path><path fill="none" stroke="#e6e6e6" stroke-width="1" data-z-index="1" class="highcharts-grid-line" d="M 63 44.5 L 590 44.5" opacity="1"></path></g><rect fill="none" class="highcharts-plot-border" data-z-index="1" x="63" y="45" width="527" height="283"></rect><g class="highcharts-axis highcharts-xaxis" data-z-index="2"><path fill="none" class="highcharts-axis-line" stroke="#ccd6eb" stroke-width="1" data-z-index="7" d="M 63 328.5 L 590 328.5"></path></g><g class="highcharts-axis highcharts-yaxis" data-z-index="2"><text x="23.890625" data-z-index="7" text-anchor="middle" transform="translate(0,0) rotate(270 23.890625 186.5)" class="highcharts-axis-title" style="color:#666666;fill:#666666;" y="186.5"><tspan>Milhões</tspan></text><path fill="none" class="highcharts-axis-line" data-z-index="7" d="M 63 45 L 63 328"></path></g><g class="highcharts-series-group" data-z-index="3"><g data-z-index="0.1" class="highcharts-series highcharts-series-0 highcharts-line-series highcharts-color-0 " transform="translate(63,45) scale(1 1)" clip-path="url(#highcharts-we302iu-16-)"><path fill="none" d="M 29.277777777778 229.22999999999996 L 87.833333333333 217.91000000000003 L 146.38888888889 194.3266666666666 L 204.94444444444 168.8566666666667 L 263.5 126.40666666666672 L 322.05555555556 122.63333333333333 L 380.61111111111 76.40999999999994 L 439.16666666667 49.05333333333334 L 497.72222222222 46.223333333333386" class="highcharts-graph" data-z-index="1" stroke="#7cb5ec" stroke-width="2" stroke-linejoin="round" stroke-linecap="round"></path></g><g data-z-index="0.1" class="highcharts-markers highcharts-series-0 highcharts-line-series highcharts-color-0 " transform="translate(63,45) scale(1 1)" clip-path="none"><path fill="#7cb5ec" d="M 29 233 A 4 4 0 1 1 29.003999999333335 232.99999800000018 Z" opacity="1" class="highcharts-point highcharts-color-0"></path><path fill="#7cb5ec" d="M 87 222 A 4 4 0 1 1 87.00399999933333 221.99999800000018 Z" opacity="1" class="highcharts-point highcharts-color-0"></path><path fill="#7cb5ec" d="M 146 198 A 4 4 0 1 1 146.00399999933333 197.99999800000018 Z" opacity="1" class="highcharts-point highcharts-color-0"></path><path fill="#7cb5ec" d="M 204 173 A 4 4 0 1 1 204.00399999933333 172.99999800000018 Z" opacity="1" class="highcharts-point highcharts-color-0"></path><path fill="#7cb5ec" d="M 263 130 A 4 4 0 1 1 263.00399999933336 129.99999800000018 Z" opacity="1" class="highcharts-point highcharts-color-0"></path><path fill="#7cb5ec" d="M 322 127 A 4 4 0 1 1 322.00399999933336 126.99999800000016 Z" opacity="1" class="highcharts-point highcharts-color-0"></path><path fill="#7cb5ec" d="M 380 80 A 4 4 0 1 1 380.00399999933336 79.99999800000016 Z" opacity="1" class="highcharts-point highcharts-color-0"></path><path fill="#7cb5ec" d="M 439 53 A 4 4 0 1 1 439.00399999933336 52.99999800000017 Z" opacity="1" class="highcharts-point highcharts-color-0"></path><path fill="#7cb5ec" d="M 497 50 A 4 4 0 1 1 497.00399999933336 49.99999800000017 Z" opacity="1" class="highcharts-point highcharts-color-0"></path></g></g><text x="300" text-anchor="middle" class="highcharts-title" data-z-index="4" style="color:#333333;font-size:18px;fill:#333333;" y="24"><tspan>Série histórica dos casos pendentes</tspan></text><text x="300" text-anchor="middle" class="highcharts-subtitle" data-z-index="4" style="color:#666666;fill:#666666;" y="44"></text><g data-z-index="6" class="highcharts-data-labels highcharts-series-0 highcharts-line-series highcharts-color-0 " transform="translate(63,45) scale(1 1)"><g class="highcharts-label highcharts-data-label highcharts-data-label-color-0" data-z-index="1" transform="translate(13,207)"><text x="5" data-z-index="1" style="font-size:11px;font-weight:bold;color:#000000;fill:#000000;" y="16"><tspan x="5" y="16" class="highcharts-text-outline" fill="#FFFFFF" stroke="#FFFFFF" stroke-width="2px" stroke-linejoin="round" style="">60.7</tspan><tspan x="5" y="16">60.7</tspan></text></g><g class="highcharts-label highcharts-data-label highcharts-data-label-color-0" data-z-index="1" transform="translate(71,196)"><text x="5" data-z-index="1" style="font-size:11px;font-weight:bold;color:#000000;fill:#000000;" y="16"><tspan x="5" y="16" class="highcharts-text-outline" fill="#FFFFFF" stroke="#FFFFFF" stroke-width="2px" stroke-linejoin="round">61.9</tspan><tspan x="5" y="16">61.9</tspan></text></g><g class="highcharts-label highcharts-data-label highcharts-data-label-color-0" data-z-index="1" transform="translate(130,172)"><text x="5" data-z-index="1" style="font-size:11px;font-weight:bold;color:#000000;fill:#000000;" y="16"><tspan x="5" y="16" class="highcharts-text-outline" fill="#FFFFFF" stroke="#FFFFFF" stroke-width="2px" stroke-linejoin="round">64.4</tspan><tspan x="5" y="16">64.4</tspan></text></g><g class="highcharts-label highcharts-data-label highcharts-data-label-color-0" data-z-index="1" transform="translate(188,147)"><text x="5" data-z-index="1" style="font-size:11px;font-weight:bold;color:#000000;fill:#000000;" y="16"><tspan x="5" y="16" class="highcharts-text-outline" fill="#FFFFFF" stroke="#FFFFFF" stroke-width="2px" stroke-linejoin="round">67.1</tspan><tspan x="5" y="16">67.1</tspan></text></g><g class="highcharts-label highcharts-data-label highcharts-data-label-color-0" data-z-index="1" transform="translate(247,104)"><text x="5" data-z-index="1" style="font-size:11px;font-weight:bold;color:#000000;fill:#000000;" y="16"><tspan x="5" y="16" class="highcharts-text-outline" fill="#FFFFFF" stroke="#FFFFFF" stroke-width="2px" stroke-linejoin="round">71.6</tspan><tspan x="5" y="16">71.6</tspan></text></g><g class="highcharts-label highcharts-data-label highcharts-data-label-color-0" data-z-index="1" transform="translate(310,101)"><text x="5" data-z-index="1" style="font-size:11px;font-weight:bold;color:#000000;fill:#000000;" y="16"><tspan x="5" y="16" class="highcharts-text-outline" fill="#FFFFFF" stroke="#FFFFFF" stroke-width="2px" stroke-linejoin="round">72</tspan><tspan x="5" y="16">72</tspan></text></g><g class="highcharts-label highcharts-data-label highcharts-data-label-color-0" data-z-index="1" transform="translate(364,54)"><text x="5" data-z-index="1" style="font-size:11px;font-weight:bold;color:#000000;fill:#000000;" y="16"><tspan x="5" y="16" class="highcharts-text-outline" fill="#FFFFFF" stroke="#FFFFFF" stroke-width="2px" stroke-linejoin="round">76.9</tspan><tspan x="5" y="16">76.9</tspan></text></g><g class="highcharts-label highcharts-data-label highcharts-data-label-color-0" data-z-index="1" transform="translate(423,27)"><text x="5" data-z-index="1" style="font-size:11px;font-weight:bold;color:#000000;fill:#000000;" y="16"><tspan x="5" y="16" class="highcharts-text-outline" fill="#FFFFFF" stroke="#FFFFFF" stroke-width="2px" stroke-linejoin="round">79.8</tspan><tspan x="5" y="16">79.8</tspan></text></g><g class="highcharts-label highcharts-data-label highcharts-data-label-color-0" data-z-index="1" transform="translate(481,24)"><text x="5" data-z-index="1" style="font-size:11px;font-weight:bold;color:#000000;fill:#000000;" y="16"><tspan x="5" y="16" class="highcharts-text-outline" fill="#FFFFFF" stroke="#FFFFFF" stroke-width="2px" stroke-linejoin="round">80.1</tspan><tspan x="5" y="16">80.1</tspan></text></g></g><g class="highcharts-legend" data-z-index="7" transform="translate(231,360)"><rect fill="none" class="highcharts-legend-box" rx="0" ry="0" x="0" y="0" width="138" height="25" visibility="visible"></rect><g data-z-index="1"><g><g class="highcharts-legend-item highcharts-line-series highcharts-color-0 highcharts-series-0" data-z-index="1" transform="translate(8,3)"><path fill="none" d="M 0 11 L 16 11" class="highcharts-graph" stroke="#7cb5ec" stroke-width="2"></path><path fill="#7cb5ec" d="M 8 15 A 4 4 0 1 1 8.003999999333336 14.999998000000167 Z" class="highcharts-point" opacity="1"></path><text x="21" style="color:#333333;cursor:pointer;font-size:12px;font-weight:bold;fill:#333333;" text-anchor="start" data-z-index="2" y="15"><tspan>Casos pendentes</tspan></text></g></g></g></g><g class="highcharts-axis-labels highcharts-xaxis-labels" data-z-index="7"><text x="92.27777777778223" style="color:#666666;cursor:default;font-size:11px;fill:#666666;" text-anchor="middle" transform="translate(0,0)" y="347" opacity="1">2009</text><text x="150.83333333333223" style="color:#666666;cursor:default;font-size:11px;fill:#666666;" text-anchor="middle" transform="translate(0,0)" y="347" opacity="1">2010</text><text x="209.38888888889224" style="color:#666666;cursor:default;font-size:11px;fill:#666666;" text-anchor="middle" transform="translate(0,0)" y="347" opacity="1">2011</text><text x="267.94444444444224" style="color:#666666;cursor:default;font-size:11px;fill:#666666;" text-anchor="middle" transform="translate(0,0)" y="347" opacity="1">2012</text><text x="326.5000000000022" style="color:#666666;cursor:default;font-size:11px;fill:#666666;" text-anchor="middle" transform="translate(0,0)" y="347" opacity="1">2013</text><text x="385.05555555555225" style="color:#666666;cursor:default;font-size:11px;fill:#666666;" text-anchor="middle" transform="translate(0,0)" y="347" opacity="1">2014</text><text x="443.6111111111122" style="color:#666666;cursor:default;font-size:11px;fill:#666666;" text-anchor="middle" transform="translate(0,0)" y="347" opacity="1">2015</text><text x="502.16666666666225" style="color:#666666;cursor:default;font-size:11px;fill:#666666;" text-anchor="middle" transform="translate(0,0)" y="347" opacity="1">2016</text><text x="560.7222222222222" style="color:#666666;cursor:default;font-size:11px;fill:#666666;" text-anchor="middle" transform="translate(0,0)" y="347" opacity="1">2017</text></g><g class="highcharts-axis-labels highcharts-yaxis-labels" data-z-index="7"><text x="48" style="color:#666666;cursor:default;font-size:11px;fill:#666666;" text-anchor="end" transform="translate(0,0)" y="333" opacity="1">55</text><text x="48" style="color:#666666;cursor:default;font-size:11px;fill:#666666;" text-anchor="end" transform="translate(0,0)" y="286" opacity="1">60</text><text x="48" style="color:#666666;cursor:default;font-size:11px;fill:#666666;" text-anchor="end" transform="translate(0,0)" y="239" opacity="1">65</text><text x="48" style="color:#666666;cursor:default;font-size:11px;fill:#666666;" text-anchor="end" transform="translate(0,0)" y="192" opacity="1">70</text><text x="48" style="color:#666666;cursor:default;font-size:11px;fill:#666666;" text-anchor="end" transform="translate(0,0)" y="144" opacity="1">75</text><text x="48" style="color:#666666;cursor:default;font-size:11px;fill:#666666;" text-anchor="end" transform="translate(0,0)" y="97" opacity="1">80</text><text x="48" style="color:#666666;cursor:default;font-size:11px;fill:#666666;" text-anchor="end" transform="translate(0,0)" y="50" opacity="1">85</text></g><text x="590" class="highcharts-credits" text-anchor="end" data-z-index="8" style="cursor:pointer;color:#999999;font-size:9px;fill:#999999;" y="395">Highcharts.com</text></svg>